<?xml version="1.0" encoding="UTF-8"?>
<!DOCTYPE svg PUBLIC "-//W3C//DTD SVG 1.1//EN" "http://www.w3.org/Graphics/SVG/1.1/DTD/svg11.dtd">
<svg xmlns="http://www.w3.org/2000/svg" version="1.1" width="118px" height="118px" style="shape-rendering:geometricPrecision; text-rendering:geometricPrecision; image-rendering:optimizeQuality; fill-rule:evenodd; clip-rule:evenodd" xmlns:xlink="http://www.w3.org/1999/xlink">
<g><path style="opacity:0.996" fill="#000000" d="M 18.5,-0.5 C 24.1667,-0.5 29.8333,-0.5 35.5,-0.5C 35.5,20.5 35.5,41.5 35.5,62.5C 33.236,61.4187 31.0693,60.0854 29,58.5C 25.4921,61.6754 22.3255,65.1754 19.5,69C 18.2068,69.49 16.8734,69.6567 15.5,69.5C 13.5106,47.525 12.844,25.1917 13.5,2.5C 15.0725,1.31271 16.7392,0.312714 18.5,-0.5 Z"/></g>
<g><path style="opacity:1" fill="#666666" d="M 35.5,-0.5 C 35.8333,-0.5 36.1667,-0.5 36.5,-0.5C 36.1695,19.6736 36.5029,39.6736 37.5,59.5C 37.0679,60.7095 36.4013,61.7095 35.5,62.5C 35.5,41.5 35.5,20.5 35.5,-0.5 Z"/></g>
<g><path style="opacity:1" fill="#010101" d="M 36.5,-0.5 C 43.8333,-0.5 51.1667,-0.5 58.5,-0.5C 58.5,23.1667 58.5,46.8333 58.5,70.5C 56.1105,69.554 53.9438,68.2206 52,66.5C 49.6439,59.9233 46.8106,53.5899 43.5,47.5C 40.9594,51.2478 38.9594,55.2478 37.5,59.5C 36.5029,39.6736 36.1695,19.6736 36.5,-0.5 Z"/></g>
<g><path style="opacity:1" fill="#666666" d="M 58.5,-0.5 C 58.8333,-0.5 59.1667,-0.5 59.5,-0.5C 59.1692,22.3395 59.5025,45.0061 60.5,67.5C 60.0679,68.7095 59.4013,69.7095 58.5,70.5C 58.5,46.8333 58.5,23.1667 58.5,-0.5 Z"/></g>
<g><path style="opacity:0.997" fill="#030406" d="M 59.5,-0.5 C 72.5,-0.5 85.5,-0.5 98.5,-0.5C 100.261,0.312714 101.928,1.31271 103.5,2.5C 103.83,21.3408 103.497,40.0075 102.5,58.5C 100.847,55.1932 99.1799,51.8599 97.5,48.5C 96.277,47.3861 94.9437,47.2195 93.5,48C 92.2713,49.5292 90.7713,50.6959 89,51.5C 87.2138,48.2635 85.7138,44.9302 84.5,41.5C 84.5,40.8333 84.1667,40.5 83.5,40.5C 86.751,36.2264 85.9177,33.2264 81,31.5C 76.0823,33.2264 75.249,36.2264 78.5,40.5C 78.5,40.8333 78.5,41.1667 78.5,41.5C 76.4053,46.0292 74.5719,50.6959 73,55.5C 66.43,56.9553 62.2633,60.9553 60.5,67.5C 59.5025,45.0061 59.1692,22.3395 59.5,-0.5 Z"/></g>
<g><path style="opacity:0.978" fill="#000000" d="M 12.5,2.5 C 12.8308,25.0062 12.4974,47.3396 11.5,69.5C 7.64654,67.995 3.64654,66.995 -0.5,66.5C -0.5,50.5 -0.5,34.5 -0.5,18.5C 1.92817,11.6573 6.2615,6.32397 12.5,2.5 Z"/></g>
<g><path style="opacity:0.992" fill="#666666" d="M 12.5,2.5 C 12.8333,2.5 13.1667,2.5 13.5,2.5C 12.844,25.1917 13.5106,47.525 15.5,69.5C 14.1667,70.8333 12.8333,70.8333 11.5,69.5C 12.4974,47.3396 12.8308,25.0062 12.5,2.5 Z"/></g>
<g><path style="opacity:0.991" fill="#676767" d="M 103.5,2.5 C 103.833,2.5 104.167,2.5 104.5,2.5C 104.17,21.0076 104.503,39.3409 105.5,57.5C 104.86,60.6478 103.86,60.9812 102.5,58.5C 103.497,40.0075 103.83,21.3408 103.5,2.5 Z"/></g>
<g><path style="opacity:0.965" fill="#000000" d="M 104.5,2.5 C 110.738,6.32397 115.072,11.6573 117.5,18.5C 117.5,25.1667 117.5,31.8333 117.5,38.5C 111.242,43.3375 107.242,49.6708 105.5,57.5C 104.503,39.3409 104.17,21.0076 104.5,2.5 Z"/></g>
<g><path style="opacity:1" fill="#299eec" d="M 83.5,40.5 C 81.8333,40.5 80.1667,40.5 78.5,40.5C 75.249,36.2264 76.0823,33.2264 81,31.5C 85.9177,33.2264 86.751,36.2264 83.5,40.5 Z"/></g>
<g><path style="opacity:1" fill="#c9d5e5" d="M 78.5,41.5 C 79.5,41.5 80.5,41.5 81.5,41.5C 81.5,52.5 81.5,63.5 81.5,74.5C 81.5,80.8333 81.5,87.1667 81.5,93.5C 81.5,101.5 81.5,109.5 81.5,117.5C 81.1667,117.5 80.8333,117.5 80.5,117.5C 80.5,109.5 80.5,101.5 80.5,93.5C 80.5,87.1667 80.5,80.8333 80.5,74.5C 80.6665,63.8281 80.4998,53.1615 80,42.5C 78.1957,47.5797 76.1957,52.5797 74,57.5C 71.423,58.2711 68.923,59.2711 66.5,60.5C 64.7778,65.3213 62.1111,69.3213 58.5,72.5C 55.3111,71.4863 52.4778,69.8196 50,67.5C 48.3115,62.2596 46.1449,57.2596 43.5,52.5C 41.057,57.0691 38.3903,61.4024 35.5,65.5C 33.2459,64.5849 31.2459,63.2516 29.5,61.5C 26.7267,64.1961 24.06,67.0294 21.5,70C 18.5259,70.9931 15.5259,71.8264 12.5,72.5C 8.4285,70.3654 4.09517,69.0321 -0.5,68.5C -0.5,67.8333 -0.5,67.1667 -0.5,66.5C 3.64654,66.995 7.64654,67.995 11.5,69.5C 12.8333,70.8333 14.1667,70.8333 15.5,69.5C 16.8734,69.6567 18.2068,69.49 19.5,69C 22.3255,65.1754 25.4921,61.6754 29,58.5C 31.0693,60.0854 33.236,61.4187 35.5,62.5C 36.4013,61.7095 37.0679,60.7095 37.5,59.5C 38.9594,55.2478 40.9594,51.2478 43.5,47.5C 46.8106,53.5899 49.6439,59.9233 52,66.5C 53.9438,68.2206 56.1105,69.554 58.5,70.5C 59.4013,69.7095 60.0679,68.7095 60.5,67.5C 62.2633,60.9553 66.43,56.9553 73,55.5C 74.5719,50.6959 76.4053,46.0292 78.5,41.5 Z"/></g>
<g><path style="opacity:1" fill="#dedede" d="M 117.5,38.5 C 117.5,39.5 117.5,40.5 117.5,41.5C 115.164,43.0038 113.331,45.0038 112,47.5C 109.429,53.1093 106.596,58.4426 103.5,63.5C 100.929,58.6947 98.0957,54.0281 95,49.5C 92.9242,52.5545 90.2576,53.5545 87,52.5C 85.7743,49.0482 84.2743,45.7148 82.5,42.5C 82.9569,41.7025 83.6236,41.3691 84.5,41.5C 85.7138,44.9302 87.2138,48.2635 89,51.5C 90.7713,50.6959 92.2713,49.5292 93.5,48C 94.9437,47.2195 96.277,47.3861 97.5,48.5C 99.1799,51.8599 100.847,55.1932 102.5,58.5C 103.86,60.9812 104.86,60.6478 105.5,57.5C 107.242,49.6708 111.242,43.3375 117.5,38.5 Z"/></g>
<g><path style="opacity:1" fill="#353535" d="M 117.5,41.5 C 117.5,49.5 117.5,57.5 117.5,65.5C 113.167,65.5 108.833,65.5 104.5,65.5C 104.5,71.8333 104.5,78.1667 104.5,84.5C 104.5,94.5 104.5,104.5 104.5,114.5C 104.167,114.5 103.833,114.5 103.5,114.5C 103.5,107.5 103.5,100.5 103.5,93.5C 103.5,87.1667 103.5,80.8333 103.5,74.5C 103.5,70.8333 103.5,67.1667 103.5,63.5C 106.596,58.4426 109.429,53.1093 112,47.5C 113.331,45.0038 115.164,43.0038 117.5,41.5 Z"/></g>
<g><path style="opacity:1" fill="#2c2c2c" d="M 80.5,74.5 C 73.5,74.5 66.5,74.5 59.5,74.5C 59.5,80.8333 59.5,87.1667 59.5,93.5C 59.5,101.5 59.5,109.5 59.5,117.5C 59.1667,117.5 58.8333,117.5 58.5,117.5C 58.5,106.5 58.5,95.5 58.5,84.5C 58.5,80.5 58.5,76.5 58.5,72.5C 62.1111,69.3213 64.7778,65.3213 66.5,60.5C 68.923,59.2711 71.423,58.2711 74,57.5C 76.1957,52.5797 78.1957,47.5797 80,42.5C 80.4998,53.1615 80.6665,63.8281 80.5,74.5 Z"/></g>
<g><path style="opacity:1" fill="#262626" d="M 78.5,41.5 C 78.5,41.1667 78.5,40.8333 78.5,40.5C 80.1667,40.5 81.8333,40.5 83.5,40.5C 84.1667,40.5 84.5,40.8333 84.5,41.5C 83.6236,41.3691 82.9569,41.7025 82.5,42.5C 84.2743,45.7148 85.7743,49.0482 87,52.5C 90.2576,53.5545 92.9242,52.5545 95,49.5C 98.0957,54.0281 100.929,58.6947 103.5,63.5C 103.5,67.1667 103.5,70.8333 103.5,74.5C 96.1667,74.5 88.8333,74.5 81.5,74.5C 81.5,63.5 81.5,52.5 81.5,41.5C 80.5,41.5 79.5,41.5 78.5,41.5 Z"/></g>
<g><path style="opacity:1" fill="#1e1e1e" d="M -0.5,68.5 C 4.09517,69.0321 8.4285,70.3654 12.5,72.5C 12.5,76.8333 12.5,81.1667 12.5,85.5C 8.081,84.6804 3.74767,84.3471 -0.5,84.5C -0.5,79.1667 -0.5,73.8333 -0.5,68.5 Z"/></g>
<g><path style="opacity:1" fill="#242424" d="M 35.5,65.5 C 35.5,71.8333 35.5,78.1667 35.5,84.5C 28.0243,85.0793 20.6909,85.0793 13.5,84.5C 13.5,94.5 13.5,104.5 13.5,114.5C 13.1667,114.5 12.8333,114.5 12.5,114.5C 12.5,104.833 12.5,95.1667 12.5,85.5C 12.5,81.1667 12.5,76.8333 12.5,72.5C 15.5259,71.8264 18.5259,70.9931 21.5,70C 24.06,67.0294 26.7267,64.1961 29.5,61.5C 31.2459,63.2516 33.2459,64.5849 35.5,65.5 Z"/></g>
<g><path style="opacity:1" fill="#252525" d="M 58.5,72.5 C 58.5,76.5 58.5,80.5 58.5,84.5C 51.4419,84.203 44.4419,84.5363 37.5,85.5C 36.5013,96.1459 36.168,106.813 36.5,117.5C 36.1667,117.5 35.8333,117.5 35.5,117.5C 35.5,106.5 35.5,95.5 35.5,84.5C 35.5,78.1667 35.5,71.8333 35.5,65.5C 38.3903,61.4024 41.057,57.0691 43.5,52.5C 46.1449,57.2596 48.3115,62.2596 50,67.5C 52.4778,69.8196 55.3111,71.4863 58.5,72.5 Z"/></g>
<g><path style="opacity:1" fill="#1e1e1e" d="M 117.5,65.5 C 117.5,71.8333 117.5,78.1667 117.5,84.5C 113.167,84.5 108.833,84.5 104.5,84.5C 104.5,78.1667 104.5,71.8333 104.5,65.5C 108.833,65.5 113.167,65.5 117.5,65.5 Z"/></g>
<g><path style="opacity:1" fill="#181818" d="M 80.5,74.5 C 80.5,80.8333 80.5,87.1667 80.5,93.5C 73.5,93.5 66.5,93.5 59.5,93.5C 59.5,87.1667 59.5,80.8333 59.5,74.5C 66.5,74.5 73.5,74.5 80.5,74.5 Z"/></g>
<g><path style="opacity:1" fill="#181718" d="M 81.5,74.5 C 88.8333,74.5 96.1667,74.5 103.5,74.5C 103.5,80.8333 103.5,87.1667 103.5,93.5C 96.1667,93.5 88.8333,93.5 81.5,93.5C 81.5,87.1667 81.5,80.8333 81.5,74.5 Z"/></g>
<g><path style="opacity:0.956" fill="#101010" d="M -0.5,84.5 C 3.74767,84.3471 8.081,84.6804 12.5,85.5C 12.5,95.1667 12.5,104.833 12.5,114.5C 6.2615,110.676 1.92817,105.343 -0.5,98.5C -0.5,93.8333 -0.5,89.1667 -0.5,84.5 Z"/></g>
<g><path style="opacity:1" fill="#0f0f0f" d="M 35.5,84.5 C 35.5,95.5 35.5,106.5 35.5,117.5C 29.8333,117.5 24.1667,117.5 18.5,117.5C 16.7392,116.687 15.0725,115.687 13.5,114.5C 13.5,104.5 13.5,94.5 13.5,84.5C 20.6909,85.0793 28.0243,85.0793 35.5,84.5 Z"/></g>
<g><path style="opacity:1" fill="#0f0f0f" d="M 58.5,84.5 C 58.5,95.5 58.5,106.5 58.5,117.5C 51.1667,117.5 43.8333,117.5 36.5,117.5C 36.168,106.813 36.5013,96.1459 37.5,85.5C 44.4419,84.5363 51.4419,84.203 58.5,84.5 Z"/></g>
<g><path style="opacity:0.956" fill="#101010" d="M 104.5,84.5 C 108.833,84.5 113.167,84.5 117.5,84.5C 117.5,89.1667 117.5,93.8333 117.5,98.5C 115.072,105.343 110.738,110.676 104.5,114.5C 104.5,104.5 104.5,94.5 104.5,84.5 Z"/></g>
<g><path style="opacity:1" fill="#0a0a0a" d="M 59.5,93.5 C 66.5,93.5 73.5,93.5 80.5,93.5C 80.5,101.5 80.5,109.5 80.5,117.5C 73.5,117.5 66.5,117.5 59.5,117.5C 59.5,109.5 59.5,101.5 59.5,93.5 Z"/></g>
<g><path style="opacity:1" fill="#0a0a0a" d="M 81.5,93.5 C 88.8333,93.5 96.1667,93.5 103.5,93.5C 103.5,100.5 103.5,107.5 103.5,114.5C 101.928,115.687 100.261,116.687 98.5,117.5C 92.8333,117.5 87.1667,117.5 81.5,117.5C 81.5,109.5 81.5,101.5 81.5,93.5 Z"/></g>
</svg>
